<svg xmlns="http://www.w3.org/2000/svg" viewBox="-10.50 -9.16 21.00 18.32">
  <defs>
    <radialGradient id="hl0" cx="0.000" cy="0.000" r="11.000" fx="-0.500" fy="-1.000" gradientUnits="userSpaceOnUse">
      <stop offset="0" stop-color="white" stop-opacity="0.3"/>
      <stop offset="1" stop-color="white" stop-opacity="0"/>
    </radialGradient>
  </defs>
  <path d="M9.250,-1.299A1.500,1.500 0 0 1 9.250,1.299L5.750,7.361A1.500,1.500 0 0 1 3.500,8.660L-3.500,8.660A1.500,1.500 0 0 1 -5.750,7.361L-9.250,1.299A1.500,1.500 0 0 1 -9.250,-1.299L-5.750,-7.361A1.500,1.500 0 0 1 -3.500,-8.660L3.500,-8.660A1.500,1.500 0 0 1 5.750,-7.361Z" fill="#FF6B6B"/>
  <path d="M9.250,-1.299A1.500,1.500 0 0 1 9.250,1.299L5.750,7.361A1.500,1.500 0 0 1 3.500,8.660L-3.500,8.660A1.500,1.500 0 0 1 -5.750,7.361L-9.250,1.299A1.500,1.500 0 0 1 -9.250,-1.299L-5.750,-7.361A1.500,1.500 0 0 1 -3.500,-8.660L3.500,-8.660A1.500,1.500 0 0 1 5.750,-7.361Z" fill="url(#hl0)"/>
  <line x1="4.134" y1="8.660" x2="-4.134" y2="8.660" stroke="black" stroke-opacity="0.25" stroke-width="0.693"/>
</svg>
