<svg xmlns="http://www.w3.org/2000/svg" viewBox="-24.50 -16.95 49.00 33.91">
  <defs>
    <radialGradient id="hl0" cx="-15.000" cy="-8.660" r="9.900" fx="-15.450" fy="-9.560" gradientUnits="userSpaceOnUse">
      <stop offset="0" stop-color="white" stop-opacity="0.3"/>
      <stop offset="1" stop-color="white" stop-opacity="0"/>
    </radialGradient>
    <radialGradient id="hl1" cx="0.000" cy="0.000" r="9.900" fx="-0.450" fy="-0.900" gradientUnits="userSpaceOnUse">
      <stop offset="0" stop-color="white" stop-opacity="0.3"/>
      <stop offset="1" stop-color="white" stop-opacity="0"/>
    </radialGradient>
    <radialGradient id="hl2" cx="15.000" cy="8.660" r="9.900" fx="14.550" fy="7.760" gradientUnits="userSpaceOnUse">
      <stop offset="0" stop-color="white" stop-opacity="0.3"/>
      <stop offset="1" stop-color="white" stop-opacity="0"/>
    </radialGradient>
    <radialGradient id="hl3" cx="15.000" cy="-8.660" r="9.900" fx="14.550" fy="-9.560" gradientUnits="userSpaceOnUse">
      <stop offset="0" stop-color="white" stop-opacity="0.3"/>
      <stop offset="1" stop-color="white" stop-opacity="0"/>
    </radialGradient>
  </defs>
  <path d="M-6.675,-9.829A1.350,1.350 0 0 1 -6.675,-7.491L-9.825,-2.035A1.350,1.350 0 0 1 -11.850,-0.866L-18.150,-0.866A1.350,1.350 0 0 1 -20.175,-2.035L-23.325,-7.491A1.350,1.350 0 0 1 -23.325,-9.829L-20.175,-15.285A1.350,1.350 0 0 1 -18.150,-16.454L-11.850,-16.454A1.350,1.350 0 0 1 -9.825,-15.285Z" fill="#FFE066"/>
  <path d="M-6.675,-9.829A1.350,1.350 0 0 1 -6.675,-7.491L-9.825,-2.035A1.350,1.350 0 0 1 -11.850,-0.866L-18.150,-0.866A1.350,1.350 0 0 1 -20.175,-2.035L-23.325,-7.491A1.350,1.350 0 0 1 -23.325,-9.829L-20.175,-15.285A1.350,1.350 0 0 1 -18.150,-16.454L-11.850,-16.454A1.350,1.350 0 0 1 -9.825,-15.285Z" fill="url(#hl0)"/>
  <line x1="-11.279" y1="-0.866" x2="-18.721" y2="-0.866" stroke="black" stroke-opacity="0.25" stroke-width="0.624"/>
  <path d="M8.325,-1.169A1.350,1.350 0 0 1 8.325,1.169L5.175,6.625A1.350,1.350 0 0 1 3.150,7.794L-3.150,7.794A1.350,1.350 0 0 1 -5.175,6.625L-8.325,1.169A1.350,1.350 0 0 1 -8.325,-1.169L-5.175,-6.625A1.350,1.350 0 0 1 -3.150,-7.794L3.150,-7.794A1.350,1.350 0 0 1 5.175,-6.625Z" fill="#FFE066"/>
  <path d="M8.325,-1.169A1.350,1.350 0 0 1 8.325,1.169L5.175,6.625A1.350,1.350 0 0 1 3.150,7.794L-3.150,7.794A1.350,1.350 0 0 1 -5.175,6.625L-8.325,1.169A1.350,1.350 0 0 1 -8.325,-1.169L-5.175,-6.625A1.350,1.350 0 0 1 -3.150,-7.794L3.150,-7.794A1.350,1.350 0 0 1 5.175,-6.625Z" fill="url(#hl1)"/>
  <line x1="3.721" y1="7.794" x2="-3.721" y2="7.794" stroke="black" stroke-opacity="0.25" stroke-width="0.624"/>
  <path d="M23.325,7.491A1.350,1.350 0 0 1 23.325,9.829L20.175,15.285A1.350,1.350 0 0 1 18.150,16.454L11.850,16.454A1.350,1.350 0 0 1 9.825,15.285L6.675,9.829A1.350,1.350 0 0 1 6.675,7.491L9.825,2.035A1.350,1.350 0 0 1 11.850,0.866L18.150,0.866A1.350,1.350 0 0 1 20.175,2.035Z" fill="#FFE066"/>
  <path d="M23.325,7.491A1.350,1.350 0 0 1 23.325,9.829L20.175,15.285A1.350,1.350 0 0 1 18.150,16.454L11.850,16.454A1.350,1.350 0 0 1 9.825,15.285L6.675,9.829A1.350,1.350 0 0 1 6.675,7.491L9.825,2.035A1.350,1.350 0 0 1 11.850,0.866L18.150,0.866A1.350,1.350 0 0 1 20.175,2.035Z" fill="url(#hl2)"/>
  <line x1="18.721" y1="16.454" x2="11.279" y2="16.454" stroke="black" stroke-opacity="0.25" stroke-width="0.624"/>
  <path d="M23.325,-9.829A1.350,1.350 0 0 1 23.325,-7.491L20.175,-2.035A1.350,1.350 0 0 1 18.150,-0.866L11.850,-0.866A1.350,1.350 0 0 1 9.825,-2.035L6.675,-7.491A1.350,1.350 0 0 1 6.675,-9.829L9.825,-15.285A1.350,1.350 0 0 1 11.850,-16.454L18.150,-16.454A1.350,1.350 0 0 1 20.175,-15.285Z" fill="#FFE066"/>
  <path d="M23.325,-9.829A1.350,1.350 0 0 1 23.325,-7.491L20.175,-2.035A1.350,1.350 0 0 1 18.150,-0.866L11.850,-0.866A1.350,1.350 0 0 1 9.825,-2.035L6.675,-7.491A1.350,1.350 0 0 1 6.675,-9.829L9.825,-15.285A1.350,1.350 0 0 1 11.850,-16.454L18.150,-16.454A1.350,1.350 0 0 1 20.175,-15.285Z" fill="url(#hl3)"/>
  <line x1="18.721" y1="-0.866" x2="11.279" y2="-0.866" stroke="black" stroke-opacity="0.25" stroke-width="0.624"/>
</svg>
